<?xml version="1.0" encoding="UTF-8"?><svg id="a" xmlns="http://www.w3.org/2000/svg" viewBox="0 0 256 256"><rect x="0" y="0" width="256" height="256" rx="128" ry="128" fill="#0f1721" stroke-width="0"/><path d="m69.78,139.89v37.85h-17.83v-99.49h32.52c5.33,0,10.18.65,14.55,1.95s8.15,3.2,11.34,5.71c3.14,2.46,5.57,5.56,7.28,9.29,1.71,3.74,2.56,8.09,2.56,13.05,0,3.46-.43,6.61-1.3,9.43-.87,2.83-2.07,5.33-3.62,7.52-1.64,2.28-3.56,4.26-5.77,5.94-2.21,1.69-4.68,3.14-7.41,4.37l21.32,41.34v.89h-19.06l-18.86-37.85h-15.72Zm14.83-14.55c2.91,0,5.52-.42,7.82-1.26,2.3-.84,4.22-2.06,5.77-3.66,1.32-1.32,2.33-2.93,3.04-4.82.71-1.89,1.06-4.02,1.06-6.39,0-2.73-.42-5.16-1.26-7.28-.84-2.12-2.08-3.86-3.72-5.23-1.55-1.27-3.39-2.25-5.54-2.94-2.14-.68-4.58-1.02-7.31-1.02h-14.69v32.59h14.83Z" fill="#e2e8f0" stroke-width="0"/><path d="m200.63,160.18c-1.82,3.96-4.26,7.36-7.31,10.18-3.05,2.83-6.67,5-10.86,6.53-4.19,1.53-8.84,2.29-13.94,2.29-4.1,0-7.88-.55-11.34-1.64-3.46-1.09-6.56-2.64-9.29-4.65-2.55-1.91-4.82-4.2-6.8-6.87-1.98-2.66-3.63-5.61-4.95-8.85-1.32-3.19-2.32-6.67-3.01-10.45-.68-3.78-1.02-7.74-1.02-11.89v-13.53c0-3.92.32-7.69.96-11.31.64-3.62,1.59-7,2.87-10.15,1.41-3.69,3.25-6.99,5.5-9.91,2.25-2.91,4.86-5.4,7.82-7.45,2.64-1.82,5.58-3.22,8.81-4.2,3.23-.98,6.74-1.47,10.52-1.47,5.37,0,10.16.77,14.35,2.32,4.19,1.55,7.77,3.76,10.73,6.63,2.96,2.83,5.31,6.29,7.04,10.39,1.73,4.1,2.85,8.7,3.35,13.8h-17.83c-.23-2.96-.72-5.59-1.47-7.89-.75-2.3-1.83-4.25-3.25-5.84-1.41-1.59-3.18-2.8-5.3-3.62s-4.66-1.23-7.62-1.23c-1.78,0-3.43.23-4.95.68-1.53.46-2.88,1.12-4.07,1.98-1.82,1.19-3.37,2.81-4.65,4.89-1.28,2.07-2.28,4.45-3.01,7.14-.64,2.14-1.09,4.49-1.37,7.04-.27,2.55-.41,5.24-.41,8.06v13.67c0,3.65.21,6.97.61,9.98.41,3.01,1.05,5.69,1.91,8.06.64,1.78,1.42,3.39,2.36,4.85.93,1.46,2.02,2.69,3.25,3.69,1.37,1.05,2.88,1.85,4.54,2.39,1.66.55,3.56.82,5.71.82,2.69,0,5.08-.35,7.17-1.06,2.09-.71,3.87-1.81,5.33-3.31,1.46-1.46,2.62-3.3,3.48-5.53.86-2.23,1.41-4.85,1.64-7.86h17.83c-.41,4.92-1.53,9.36-3.35,13.32Z" fill="#3b82f6" stroke-width="0"/></svg>